<svg width="100" height="100" viewBox="0 0 100 100" fill="none" xmlns="http://www.w3.org/2000/svg">
<circle cx="50" cy="50" r="50" fill="#529F0F"/>
<path d="M21.304 50.216V54.664H9.592V50.216H21.304ZM35.5863 61V56.36H25.2823V52.904C25.4743 52.5627 25.7196 52.1467 26.0182 51.656C26.3383 51.1653 26.7116 50.6 27.1383 49.96L34.0183 39.88H40.4503V52.584H43.6823V56.36H40.4503V61H35.5863ZM29.6983 52.584H35.6503V46.184C35.6503 45.7573 35.6609 45.32 35.6823 44.872C35.7036 44.4027 35.7249 43.9333 35.7463 43.464H35.6823C35.4689 43.912 35.2129 44.3813 34.9143 44.872C34.6369 45.3413 34.3703 45.768 34.1143 46.152L30.3703 51.624C30.2636 51.7947 30.1569 51.9547 30.0503 52.104C29.9436 52.2533 29.8263 52.4133 29.6983 52.584ZM54.8978 61.32C52.0178 61.32 49.8311 60.4027 48.3378 58.568C46.8658 56.7333 46.1298 54.024 46.1298 50.44C46.1298 46.856 46.8658 44.1467 48.3378 42.312C49.8311 40.4773 52.0178 39.56 54.8978 39.56C57.7778 39.56 59.9538 40.4773 61.4258 42.312C62.9191 44.1467 63.6658 46.856 63.6658 50.44C63.6658 54.024 62.9191 56.7333 61.4258 58.568C59.9538 60.4027 57.7778 61.32 54.8978 61.32ZM54.8978 57.032C55.6871 57.032 56.3271 56.8187 56.8178 56.392C57.3084 55.944 57.6604 55.24 57.8738 54.28C58.1084 53.2987 58.2258 52.0187 58.2258 50.44C58.2258 48.8613 58.1084 47.592 57.8738 46.632C57.6604 45.6507 57.3084 44.9467 56.8178 44.52C56.3271 44.072 55.6871 43.848 54.8978 43.848C54.1298 43.848 53.4898 44.072 52.9778 44.52C52.4871 44.9467 52.1244 45.6507 51.8898 46.632C51.6764 47.592 51.5698 48.8613 51.5698 50.44C51.5698 52.0187 51.6764 53.2987 51.8898 54.28C52.1244 55.24 52.4871 55.944 52.9778 56.392C53.4898 56.8187 54.1298 57.032 54.8978 57.032ZM70.7875 61L85.4755 39.848H89.6355L74.9475 61H70.7875ZM72.0995 39.56C73.3155 39.56 74.3608 39.816 75.2355 40.328C76.1315 40.8187 76.8248 41.512 77.3155 42.408C77.8062 43.304 78.0515 44.36 78.0515 45.576C78.0515 46.792 77.8062 47.848 77.3155 48.744C76.8248 49.64 76.1315 50.344 75.2355 50.856C74.3608 51.3467 73.3155 51.592 72.0995 51.592C70.9048 51.592 69.8595 51.3467 68.9635 50.856C68.0888 50.344 67.3955 49.64 66.8835 48.744C66.3928 47.848 66.1475 46.792 66.1475 45.576C66.1475 44.36 66.3928 43.304 66.8835 42.408C67.3955 41.512 68.0888 40.8187 68.9635 40.328C69.8595 39.816 70.9048 39.56 72.0995 39.56ZM72.0995 43.208C71.6942 43.208 71.3528 43.304 71.0755 43.496C70.7982 43.6667 70.5848 43.9333 70.4355 44.296C70.2862 44.6373 70.2115 45.064 70.2115 45.576C70.2115 46.0667 70.2862 46.4933 70.4355 46.856C70.5848 47.2187 70.7982 47.496 71.0755 47.688C71.3528 47.8587 71.6942 47.944 72.0995 47.944C72.5262 47.944 72.8782 47.8587 73.1555 47.688C73.4328 47.496 73.6462 47.2187 73.7955 46.856C73.9448 46.4933 74.0195 46.0667 74.0195 45.576C74.0195 45.064 73.9448 44.6373 73.7955 44.296C73.6462 43.9333 73.4328 43.6667 73.1555 43.496C72.8782 43.304 72.5262 43.208 72.0995 43.208ZM88.2595 49.288C89.4542 49.288 90.4995 49.544 91.3955 50.056C92.2915 50.5467 92.9848 51.24 93.4755 52.136C93.9662 53.032 94.2115 54.088 94.2115 55.304C94.2115 56.52 93.9662 57.576 93.4755 58.472C92.9848 59.368 92.2915 60.072 91.3955 60.584C90.4995 61.0747 89.4542 61.32 88.2595 61.32C87.0648 61.32 86.0195 61.0747 85.1235 60.584C84.2275 60.072 83.5342 59.368 83.0435 58.472C82.5528 57.576 82.3075 56.52 82.3075 55.304C82.3075 54.088 82.5528 53.032 83.0435 52.136C83.5342 51.24 84.2275 50.5467 85.1235 50.056C86.0195 49.544 87.0648 49.288 88.2595 49.288ZM88.2595 52.936C87.8542 52.936 87.5022 53.032 87.2035 53.224C86.9262 53.3947 86.7128 53.6613 86.5635 54.024C86.4142 54.3653 86.3395 54.792 86.3395 55.304C86.3395 55.7947 86.4142 56.2213 86.5635 56.584C86.7128 56.9467 86.9262 57.224 87.2035 57.416C87.5022 57.5867 87.8542 57.672 88.2595 57.672C88.6862 57.672 89.0382 57.5867 89.3155 57.416C89.5928 57.224 89.8062 56.9467 89.9555 56.584C90.1048 56.2213 90.1795 55.7947 90.1795 55.304C90.1795 54.792 90.1048 54.3653 89.9555 54.024C89.8062 53.6613 89.5928 53.3947 89.3155 53.224C89.0382 53.032 88.6862 52.936 88.2595 52.936Z" fill="white"/>
</svg>
