<svg width="100" height="100" viewBox="0 0 100 100" fill="none" xmlns="http://www.w3.org/2000/svg">
<circle cx="50" cy="50" r="50" fill="#529F0F"/>
<path d="M21.304 50.216V54.664H9.592V50.216H21.304ZM33.0583 61.32C31.2236 61.32 29.6236 60.968 28.2583 60.264C26.9143 59.5387 25.7836 58.3653 24.8663 56.744L29.6983 54.344C29.9329 55.1973 30.3063 55.88 30.8183 56.392C31.3516 56.904 32.1409 57.16 33.1863 57.16C33.8476 57.16 34.4129 57.0427 34.8823 56.808C35.3516 56.5733 35.7143 56.232 35.9703 55.784C36.2476 55.3147 36.3863 54.7493 36.3863 54.088C36.3863 53.448 36.2583 52.9147 36.0023 52.488C35.7676 52.0613 35.4156 51.7413 34.9463 51.528C34.4769 51.2933 33.8903 51.176 33.1863 51.176C32.6743 51.176 32.2156 51.2293 31.8103 51.336C31.4049 51.4213 31.0316 51.56 30.6903 51.752C30.3703 51.9227 30.0716 52.1467 29.7943 52.424L25.6343 51.656L26.9783 39.88H40.2903V44.136H30.9783L30.4343 48.36L30.3383 48.872H30.3703C30.7969 48.3813 31.3943 48.008 32.1623 47.752C32.9303 47.496 33.7836 47.368 34.7223 47.368C36.1089 47.368 37.2929 47.6453 38.2743 48.2C39.2556 48.7547 40.0129 49.512 40.5463 50.472C41.0796 51.432 41.3463 52.5307 41.3463 53.768C41.3463 55.0693 41.1223 56.2 40.6743 57.16C40.2476 58.0987 39.6396 58.8773 38.8503 59.496C38.0823 60.1147 37.1969 60.5733 36.1943 60.872C35.2129 61.1707 34.1676 61.32 33.0583 61.32ZM52.8665 61.32C49.9865 61.32 47.7998 60.4027 46.3065 58.568C44.8345 56.7333 44.0985 54.024 44.0985 50.44C44.0985 46.856 44.8345 44.1467 46.3065 42.312C47.7998 40.4773 49.9865 39.56 52.8665 39.56C55.7465 39.56 57.9225 40.4773 59.3945 42.312C60.8878 44.1467 61.6345 46.856 61.6345 50.44C61.6345 54.024 60.8878 56.7333 59.3945 58.568C57.9225 60.4027 55.7465 61.32 52.8665 61.32ZM52.8665 57.032C53.6558 57.032 54.2958 56.8187 54.7865 56.392C55.2772 55.944 55.6292 55.24 55.8425 54.28C56.0772 53.2987 56.1945 52.0187 56.1945 50.44C56.1945 48.8613 56.0772 47.592 55.8425 46.632C55.6292 45.6507 55.2772 44.9467 54.7865 44.52C54.2958 44.072 53.6558 43.848 52.8665 43.848C52.0985 43.848 51.4585 44.072 50.9465 44.52C50.4558 44.9467 50.0932 45.6507 49.8585 46.632C49.6452 47.592 49.5385 48.8613 49.5385 50.44C49.5385 52.0187 49.6452 53.2987 49.8585 54.28C50.0932 55.24 50.4558 55.944 50.9465 56.392C51.4585 56.8187 52.0985 57.032 52.8665 57.032ZM68.7563 61L83.4443 39.848H87.6043L72.9163 61H68.7563ZM70.0683 39.56C71.2843 39.56 72.3296 39.816 73.2043 40.328C74.1003 40.8187 74.7936 41.512 75.2843 42.408C75.7749 43.304 76.0203 44.36 76.0203 45.576C76.0203 46.792 75.7749 47.848 75.2843 48.744C74.7936 49.64 74.1003 50.344 73.2043 50.856C72.3296 51.3467 71.2843 51.592 70.0683 51.592C68.8736 51.592 67.8283 51.3467 66.9323 50.856C66.0576 50.344 65.3643 49.64 64.8523 48.744C64.3616 47.848 64.1163 46.792 64.1163 45.576C64.1163 44.36 64.3616 43.304 64.8523 42.408C65.3643 41.512 66.0576 40.8187 66.9323 40.328C67.8283 39.816 68.8736 39.56 70.0683 39.56ZM70.0683 43.208C69.6629 43.208 69.3216 43.304 69.0443 43.496C68.7669 43.6667 68.5536 43.9333 68.4043 44.296C68.2549 44.6373 68.1803 45.064 68.1803 45.576C68.1803 46.0667 68.2549 46.4933 68.4043 46.856C68.5536 47.2187 68.7669 47.496 69.0443 47.688C69.3216 47.8587 69.6629 47.944 70.0683 47.944C70.4949 47.944 70.8469 47.8587 71.1243 47.688C71.4016 47.496 71.6149 47.2187 71.7643 46.856C71.9136 46.4933 71.9883 46.0667 71.9883 45.576C71.9883 45.064 71.9136 44.6373 71.7643 44.296C71.6149 43.9333 71.4016 43.6667 71.1243 43.496C70.8469 43.304 70.4949 43.208 70.0683 43.208ZM86.2283 49.288C87.4229 49.288 88.4683 49.544 89.3643 50.056C90.2603 50.5467 90.9536 51.24 91.4443 52.136C91.9349 53.032 92.1803 54.088 92.1803 55.304C92.1803 56.52 91.9349 57.576 91.4443 58.472C90.9536 59.368 90.2603 60.072 89.3643 60.584C88.4683 61.0747 87.4229 61.32 86.2283 61.32C85.0336 61.32 83.9883 61.0747 83.0923 60.584C82.1963 60.072 81.5029 59.368 81.0123 58.472C80.5216 57.576 80.2763 56.52 80.2763 55.304C80.2763 54.088 80.5216 53.032 81.0123 52.136C81.5029 51.24 82.1963 50.5467 83.0923 50.056C83.9883 49.544 85.0336 49.288 86.2283 49.288ZM86.2283 52.936C85.8229 52.936 85.4709 53.032 85.1723 53.224C84.8949 53.3947 84.6816 53.6613 84.5323 54.024C84.3829 54.3653 84.3083 54.792 84.3083 55.304C84.3083 55.7947 84.3829 56.2213 84.5323 56.584C84.6816 56.9467 84.8949 57.224 85.1723 57.416C85.4709 57.5867 85.8229 57.672 86.2283 57.672C86.6549 57.672 87.0069 57.5867 87.2843 57.416C87.5616 57.224 87.7749 56.9467 87.9243 56.584C88.0736 56.2213 88.1483 55.7947 88.1483 55.304C88.1483 54.792 88.0736 54.3653 87.9243 54.024C87.7749 53.6613 87.5616 53.3947 87.2843 53.224C87.0069 53.032 86.6549 52.936 86.2283 52.936Z" fill="white"/>
</svg>
