<svg width="100" height="100" viewBox="0 0 100 100" fill="none" xmlns="http://www.w3.org/2000/svg">
<circle cx="50" cy="50" r="50" fill="#529F0F"/>
<path d="M21.304 50.216V54.664H9.592V50.216H21.304ZM34.8503 39.56C35.9809 39.56 37.0263 39.7093 37.9863 40.008C38.9676 40.3067 39.8209 40.7973 40.5463 41.48C41.2716 42.1627 41.8156 43.08 42.1783 44.232L37.6983 46.344C37.4849 45.5973 37.1116 45.0107 36.5783 44.584C36.0663 44.136 35.3729 43.912 34.4983 43.912C33.9009 43.912 33.3463 44.0613 32.8343 44.36C32.3436 44.6373 31.9169 45.0427 31.5543 45.576C31.1916 46.1093 30.9143 46.76 30.7223 47.528C30.5516 48.296 30.4663 49.16 30.4663 50.12C30.4663 50.184 30.4663 50.2587 30.4663 50.344C30.4663 50.408 30.4663 50.504 30.4663 50.632L30.5303 50.824C30.7863 50.184 31.1809 49.6507 31.7143 49.224C32.2689 48.776 32.8983 48.4347 33.6023 48.2C34.3063 47.9653 35.0103 47.848 35.7143 47.848C37.0156 47.848 38.1783 48.104 39.2023 48.616C40.2263 49.128 41.0263 49.864 41.6023 50.824C42.1996 51.7627 42.4983 52.904 42.4983 54.248C42.4983 55.6987 42.1676 56.9573 41.5063 58.024C40.8449 59.0693 39.9276 59.88 38.7543 60.456C37.5809 61.032 36.1836 61.32 34.5623 61.32C32.7489 61.32 31.1489 60.9253 29.7623 60.136C28.3969 59.3253 27.3303 58.1307 26.5623 56.552C25.8156 54.952 25.4423 52.9787 25.4423 50.632C25.4423 48.1147 25.8583 46.0453 26.6903 44.424C27.5223 42.8027 28.6423 41.5867 30.0503 40.776C31.4796 39.9653 33.0796 39.56 34.8503 39.56ZM34.4663 51.56C33.9116 51.56 33.3996 51.6773 32.9303 51.912C32.4823 52.1253 32.1196 52.4453 31.8423 52.872C31.5863 53.2987 31.4583 53.8 31.4583 54.376C31.4583 54.9307 31.5969 55.4213 31.8743 55.848C32.1516 56.2747 32.5143 56.6053 32.9623 56.84C33.4103 57.0747 33.9116 57.192 34.4663 57.192C35.4263 57.192 36.1623 56.9467 36.6743 56.456C37.2076 55.9653 37.4743 55.272 37.4743 54.376C37.4743 53.7787 37.3569 53.2773 37.1223 52.872C36.8876 52.4453 36.5463 52.1253 36.0983 51.912C35.6716 51.6773 35.1276 51.56 34.4663 51.56ZM53.929 61.32C51.049 61.32 48.8623 60.4027 47.369 58.568C45.897 56.7333 45.161 54.024 45.161 50.44C45.161 46.856 45.897 44.1467 47.369 42.312C48.8623 40.4773 51.049 39.56 53.929 39.56C56.809 39.56 58.985 40.4773 60.457 42.312C61.9503 44.1467 62.697 46.856 62.697 50.44C62.697 54.024 61.9503 56.7333 60.457 58.568C58.985 60.4027 56.809 61.32 53.929 61.32ZM53.929 57.032C54.7183 57.032 55.3583 56.8187 55.849 56.392C56.3397 55.944 56.6917 55.24 56.905 54.28C57.1397 53.2987 57.257 52.0187 57.257 50.44C57.257 48.8613 57.1397 47.592 56.905 46.632C56.6917 45.6507 56.3397 44.9467 55.849 44.52C55.3583 44.072 54.7183 43.848 53.929 43.848C53.161 43.848 52.521 44.072 52.009 44.52C51.5183 44.9467 51.1557 45.6507 50.921 46.632C50.7077 47.592 50.601 48.8613 50.601 50.44C50.601 52.0187 50.7077 53.2987 50.921 54.28C51.1557 55.24 51.5183 55.944 52.009 56.392C52.521 56.8187 53.161 57.032 53.929 57.032ZM69.8188 61L84.5068 39.848H88.6668L73.9788 61H69.8188ZM71.1308 39.56C72.3468 39.56 73.3921 39.816 74.2668 40.328C75.1628 40.8187 75.8561 41.512 76.3468 42.408C76.8374 43.304 77.0828 44.36 77.0828 45.576C77.0828 46.792 76.8374 47.848 76.3468 48.744C75.8561 49.64 75.1628 50.344 74.2668 50.856C73.3921 51.3467 72.3468 51.592 71.1308 51.592C69.9361 51.592 68.8908 51.3467 67.9948 50.856C67.1201 50.344 66.4268 49.64 65.9148 48.744C65.4241 47.848 65.1788 46.792 65.1788 45.576C65.1788 44.36 65.4241 43.304 65.9148 42.408C66.4268 41.512 67.1201 40.8187 67.9948 40.328C68.8908 39.816 69.9361 39.56 71.1308 39.56ZM71.1308 43.208C70.7254 43.208 70.3841 43.304 70.1068 43.496C69.8294 43.6667 69.6161 43.9333 69.4668 44.296C69.3174 44.6373 69.2428 45.064 69.2428 45.576C69.2428 46.0667 69.3174 46.4933 69.4668 46.856C69.6161 47.2187 69.8294 47.496 70.1068 47.688C70.3841 47.8587 70.7254 47.944 71.1308 47.944C71.5574 47.944 71.9094 47.8587 72.1868 47.688C72.4641 47.496 72.6774 47.2187 72.8268 46.856C72.9761 46.4933 73.0508 46.0667 73.0508 45.576C73.0508 45.064 72.9761 44.6373 72.8268 44.296C72.6774 43.9333 72.4641 43.6667 72.1868 43.496C71.9094 43.304 71.5574 43.208 71.1308 43.208ZM87.2908 49.288C88.4854 49.288 89.5308 49.544 90.4268 50.056C91.3228 50.5467 92.0161 51.24 92.5068 52.136C92.9974 53.032 93.2428 54.088 93.2428 55.304C93.2428 56.52 92.9974 57.576 92.5068 58.472C92.0161 59.368 91.3228 60.072 90.4268 60.584C89.5308 61.0747 88.4854 61.32 87.2908 61.32C86.0961 61.32 85.0508 61.0747 84.1548 60.584C83.2588 60.072 82.5654 59.368 82.0748 58.472C81.5841 57.576 81.3388 56.52 81.3388 55.304C81.3388 54.088 81.5841 53.032 82.0748 52.136C82.5654 51.24 83.2588 50.5467 84.1548 50.056C85.0508 49.544 86.0961 49.288 87.2908 49.288ZM87.2908 52.936C86.8854 52.936 86.5334 53.032 86.2348 53.224C85.9574 53.3947 85.7441 53.6613 85.5948 54.024C85.4454 54.3653 85.3708 54.792 85.3708 55.304C85.3708 55.7947 85.4454 56.2213 85.5948 56.584C85.7441 56.9467 85.9574 57.224 86.2348 57.416C86.5334 57.5867 86.8854 57.672 87.2908 57.672C87.7174 57.672 88.0694 57.5867 88.3468 57.416C88.6241 57.224 88.8374 56.9467 88.9868 56.584C89.1361 56.2213 89.2108 55.7947 89.2108 55.304C89.2108 54.792 89.1361 54.3653 88.9868 54.024C88.8374 53.6613 88.6241 53.3947 88.3468 53.224C88.0694 53.032 87.7174 52.936 87.2908 52.936Z" fill="white"/>
</svg>
