<svg width="100" height="100" viewBox="0 0 100 100" fill="none" xmlns="http://www.w3.org/2000/svg">
<circle cx="50" cy="50" r="50" fill="#529F0F"/>
<path d="M21.304 50.216V54.664H9.592V50.216H21.304ZM24.3575 61V57.48C26.1708 56.3493 27.7175 55.2933 28.9975 54.312C30.2775 53.3307 31.3122 52.4027 32.1015 51.528C32.9122 50.6533 33.5095 49.8213 33.8935 49.032C34.2775 48.2427 34.4695 47.4747 34.4695 46.728C34.4695 45.9173 34.2242 45.2453 33.7335 44.712C33.2642 44.1573 32.5602 43.88 31.6215 43.88C30.6188 43.88 29.8402 44.2533 29.2855 45C28.7308 45.7253 28.4322 46.792 28.3895 48.2L23.6855 46.76C23.7282 45.1813 24.1015 43.8587 24.8055 42.792C25.5308 41.7253 26.5122 40.9253 27.7495 40.392C28.9868 39.8373 30.3948 39.56 31.9735 39.56C33.3602 39.56 34.5548 39.7627 35.5575 40.168C36.5815 40.552 37.4135 41.0747 38.0535 41.736C38.6935 42.376 39.1628 43.1013 39.4615 43.912C39.7815 44.7013 39.9415 45.512 39.9415 46.344C39.9415 47.7093 39.5895 48.9893 38.8855 50.184C38.1815 51.3573 37.1575 52.4987 35.8135 53.608C34.4908 54.696 32.8802 55.7947 30.9815 56.904V56.936C31.3442 56.9147 31.7708 56.8933 32.2615 56.872C32.7522 56.8507 33.2642 56.84 33.7975 56.84C34.3308 56.8187 34.8108 56.808 35.2375 56.808H40.1975V61H24.3575ZM51.804 61.32C48.924 61.32 46.7373 60.4027 45.244 58.568C43.772 56.7333 43.036 54.024 43.036 50.44C43.036 46.856 43.772 44.1467 45.244 42.312C46.7373 40.4773 48.924 39.56 51.804 39.56C54.684 39.56 56.86 40.4773 58.332 42.312C59.8253 44.1467 60.572 46.856 60.572 50.44C60.572 54.024 59.8253 56.7333 58.332 58.568C56.86 60.4027 54.684 61.32 51.804 61.32ZM51.804 57.032C52.5933 57.032 53.2333 56.8187 53.724 56.392C54.2147 55.944 54.5667 55.24 54.78 54.28C55.0147 53.2987 55.132 52.0187 55.132 50.44C55.132 48.8613 55.0147 47.592 54.78 46.632C54.5667 45.6507 54.2147 44.9467 53.724 44.52C53.2333 44.072 52.5933 43.848 51.804 43.848C51.036 43.848 50.396 44.072 49.884 44.52C49.3933 44.9467 49.0307 45.6507 48.796 46.632C48.5827 47.592 48.476 48.8613 48.476 50.44C48.476 52.0187 48.5827 53.2987 48.796 54.28C49.0307 55.24 49.3933 55.944 49.884 56.392C50.396 56.8187 51.036 57.032 51.804 57.032ZM67.6938 61L82.3818 39.848H86.5418L71.8538 61H67.6938ZM69.0058 39.56C70.2218 39.56 71.2671 39.816 72.1418 40.328C73.0378 40.8187 73.7311 41.512 74.2218 42.408C74.7124 43.304 74.9578 44.36 74.9578 45.576C74.9578 46.792 74.7124 47.848 74.2218 48.744C73.7311 49.64 73.0378 50.344 72.1418 50.856C71.2671 51.3467 70.2218 51.592 69.0058 51.592C67.8111 51.592 66.7658 51.3467 65.8698 50.856C64.9951 50.344 64.3018 49.64 63.7898 48.744C63.2991 47.848 63.0538 46.792 63.0538 45.576C63.0538 44.36 63.2991 43.304 63.7898 42.408C64.3018 41.512 64.9951 40.8187 65.8698 40.328C66.7658 39.816 67.8111 39.56 69.0058 39.56ZM69.0058 43.208C68.6004 43.208 68.2591 43.304 67.9818 43.496C67.7044 43.6667 67.4911 43.9333 67.3418 44.296C67.1924 44.6373 67.1178 45.064 67.1178 45.576C67.1178 46.0667 67.1924 46.4933 67.3418 46.856C67.4911 47.2187 67.7044 47.496 67.9818 47.688C68.2591 47.8587 68.6004 47.944 69.0058 47.944C69.4324 47.944 69.7844 47.8587 70.0618 47.688C70.3391 47.496 70.5524 47.2187 70.7018 46.856C70.8511 46.4933 70.9258 46.0667 70.9258 45.576C70.9258 45.064 70.8511 44.6373 70.7018 44.296C70.5524 43.9333 70.3391 43.6667 70.0618 43.496C69.7844 43.304 69.4324 43.208 69.0058 43.208ZM85.1658 49.288C86.3604 49.288 87.4058 49.544 88.3018 50.056C89.1978 50.5467 89.8911 51.24 90.3818 52.136C90.8724 53.032 91.1178 54.088 91.1178 55.304C91.1178 56.52 90.8724 57.576 90.3818 58.472C89.8911 59.368 89.1978 60.072 88.3018 60.584C87.4058 61.0747 86.3604 61.32 85.1658 61.32C83.9711 61.32 82.9258 61.0747 82.0298 60.584C81.1338 60.072 80.4404 59.368 79.9498 58.472C79.4591 57.576 79.2138 56.52 79.2138 55.304C79.2138 54.088 79.4591 53.032 79.9498 52.136C80.4404 51.24 81.1338 50.5467 82.0298 50.056C82.9258 49.544 83.9711 49.288 85.1658 49.288ZM85.1658 52.936C84.7604 52.936 84.4084 53.032 84.1098 53.224C83.8324 53.3947 83.6191 53.6613 83.4698 54.024C83.3204 54.3653 83.2458 54.792 83.2458 55.304C83.2458 55.7947 83.3204 56.2213 83.4698 56.584C83.6191 56.9467 83.8324 57.224 84.1098 57.416C84.4084 57.5867 84.7604 57.672 85.1658 57.672C85.5924 57.672 85.9444 57.5867 86.2218 57.416C86.4991 57.224 86.7124 56.9467 86.8618 56.584C87.0111 56.2213 87.0858 55.7947 87.0858 55.304C87.0858 54.792 87.0111 54.3653 86.8618 54.024C86.7124 53.6613 86.4991 53.3947 86.2218 53.224C85.9444 53.032 85.5924 52.936 85.1658 52.936Z" fill="white"/>
</svg>
